:FULLY-SPECIFIED
:FORCE-ALL-JOINTS-BE-3DOF
:DEGREES
1
root 7.46593 15.9937 -36.7321 7.11356 1.31487 -3.66776
lfemur -40.6897 6.42258 -16.3516
ltibia 43.9106 0 0
lfoot -14.6186 8.34667 0
ltoes -11.8487 0 0
rfemur -9.89801 4.72659 30.1099
rtibia 24.1198 0 0
rfoot 0 0 0
rtoes 0 0 0
lowerback -4.29912 0.189404 0.939401
upperback -1.51886 0.185188 2.55702
thorax 0.845091 0.0960327 2.10705
lowerneck -18.6579 -5.17414 -13.3376
upperneck 13.6797 -6.63107 16.9236
head 8.38994 -2.28192 7.17028
lclavicle 6.33626e-15 1.59028e-14 0
lhumerus -35.9267 -2.97855 86.2544
lradius 27.4056 0 0
lwrist 7.30557 0 0
lhand -13.3003 -23.0211 0
lfingers 7.12502 0 0
lthumb 12.8038 6.56624 0
rclavicle 6.33626e-15 1.59028e-14 0
rhumerus -38.7688 17.4551 -84.1031
rradius 56.1989 0 0
rwrist -28.5696 0 0
rhand -33.2015 -25.7513 0
rfingers 7.12502 0 0
rthumb -6.4087 -55.6344 0
2
root 7.44866 15.9691 -36.7338 7.19921 1.13937 -4.02773
lfemur -41.08 6.26713 -15.633
ltibia 42.9119 0 0
lfoot -14.5332 8.58296 0
ltoes -12.1509 0 0
rfemur -8.33656 5.02264 30.6146
rtibia 21.6577 0 0
rfoot -0.995049 0.263254 0
rtoes -2.00025 0 0
lowerback -4.52326 0.265218 1.23565
upperback -1.46672 0.253295 2.6225
thorax 1.02683 0.131077 2.01946
lowerneck -18.6557 -5.16625 -13.2923
upperneck 13.723 -6.63809 16.9128
head 8.4019 -2.28181 7.15861
lclavicle 7.18741e-15 1.61389e-14 0
lhumerus -36.2518 -3.25702 86.4863
lradius 27.5267 0 0
lwrist 7.38955 0 0
lhand -13.6674 -23.4236 0
lfingers 7.12502 0 0
lthumb 12.4514 6.20607 0
rclavicle 7.18741e-15 1.61389e-14 0
rhumerus -38.9733 17.7886 -84.4459
rradius 57.065 0 0
rwrist -28.9533 0 0
rhand -33.1259 -26.0808 0
rfingers 7.12502 0 0
rthumb -6.33573 -55.9658 0
3
root 7.43513 15.9458 -36.7171 7.27847 0.942618 -4.36752
lfemur -41.4324 6.12026 -14.9526
ltibia 41.9248 0 0
lfoot -14.4417 8.80984 0
ltoes -12.4261 0 0
rfemur -6.81001 5.29874 31.073
rtibia 19.3373 0 0
rfoot -1.94023 0.498102 0
rtoes -3.9423 0 0
lowerback -4.74198 0.339281 1.51557
upperback -1.41747 0.320445 2.68575
thorax 1.20234 0.165639 1.93848
lowerneck -18.6616 -5.15645 -13.2451
upperneck 13.7727 -6.64106 16.8942
head 8.41659 -2.28017 7.14463
lclavicle 8.04524e-15 1.63352e-14 0
lhumerus -36.574 -3.53008 86.715
lradius 27.6301 0 0
lwrist 7.44791 0 0
lhand -13.9913 -23.8016 0
lfingers 7.12502 0 0
lthumb 12.1406 5.86574 0
rclavicle 8.04524e-15 1.63352e-14 0
rhumerus -39.1794 18.1031 -84.7916
rradius 57.8659 0 0
rwrist -29.3058 0 0
rhand -33.0451 -26.3992 0
rfingers 7.12502 0 0
rthumb -6.25773 -56.2862 0
4
root 7.42518 15.9239 -36.6827 7.35153 0.725955 -4.68753
lfemur -41.7484 5.9818 -14.3095
ltibia 40.9506 0 0
lfoot -14.3446 9.02741 0
ltoes -12.6752 0 0
rfemur -5.31917 5.55541 31.4867
rtibia 17.1557 0 0
rfoot -2.83641 0.705533 0
rtoes -5.82578 0 0
lowerback -4.95519 0.411558 1.77949
upperback -1.37105 0.386574 2.74679
thorax 1.37163 0.199685 1.86392
lowerneck -18.6752 -5.14485 -13.1963
upperneck 13.8286 -6.64017 16.8683
head 8.43385 -2.27709 7.12849
lclavicle 8.90801e-15 1.64933e-14 0
lhumerus -36.893 -3.79754 86.9402
lradius 27.7165 0 0
lwrist 7.48182 0 0
lhand -14.2734 -24.1557 0
lfingers 7.12502 0 0
lthumb 11.8698 5.54487 0
rclavicle 8.90801e-15 1.64933e-14 0
rhumerus -39.3868 18.3991 -85.1396
rradius 58.6034 0 0
rwrist -29.628 0 0
rhand -32.9595 -26.7065 0
rfingers 7.12502 0 0
rthumb -6.17508 -56.5956 0
5
root 7.41866 15.9032 -36.6316 7.41855 0.490736 -4.98819
lfemur -42.0291 5.85156 -13.7032
ltibia 39.9901 0 0
lfoot -14.2423 9.23574 0
ltoes -12.8991 0 0
rfemur -3.86485 5.79316 31.8571
rtibia 15.1098 0 0
rfoot -3.68444 0.886535 0
rtoes -7.65033 0 0
lowerback -5.1628 0.482011 2.02774
upperback -1.3274 0.45162 2.80562
thorax 1.53472 0.233181 1.7956
lowerneck -18.6961 -5.13155 -13.1461
upperneck 13.8901 -6.6356 16.8355
head 8.45352 -2.27265 7.1103
lclavicle 9.774e-15 1.66149e-14 0
lhumerus -37.2083 -4.05923 87.1618
lradius 27.7867 0 0
lwrist 7.49239 0 0
lhand -14.5155 -24.4865 0
lfingers 7.12502 0 0
lthumb 11.6376 5.24304 0
rclavicle 9.774e-15 1.66149e-14 0
rhumerus -39.5951 18.677 -85.4891
rradius 59.2794 0 0
rwrist -29.9207 0 0
rhand -32.8695 -27.0027 0
rfingers 7.12502 0 0
rthumb -6.08814 -56.894 0
6
root 7.41541 15.8837 -36.5648 7.47972 0.23831 -5.26992
lfemur -42.2758 5.72937 -13.1328
ltibia 39.0445 0 0
lfoot -14.1352 9.43491 0
ltoes -13.0985 0 0
rfemur -2.44787 6.0125 32.1857
rtibia 13.1965 0 0
rfoot -4.4852 1.0421 0
rtoes -9.41556 0 0
lowerback -5.3647 0.550603 2.26066
upperback -1.28647 0.515516 2.86223
thorax 1.69162 0.266094 1.73333
lowerneck -18.7239 -5.11666 -13.0945
upperneck 13.957 -6.62755 16.7961
head 8.47545 -2.26691 7.09021
lclavicle 1.06415e-14 1.67015e-14 0
lhumerus -37.5197 -4.31496 87.3794
lradius 27.8414 0 0
lwrist 7.48079 0 0
lhand -14.7189 -24.7944 0
lfingers 7.12502 0 0
lthumb 11.4424 4.95985 0
rclavicle 1.06415e-14 1.67015e-14 0
rhumerus -39.8037 18.9371 -85.8393
rradius 59.8956 0 0
rwrist -30.185 0 0
rhand -32.7754 -27.2879 0
rfingers 7.12502 0 0
rthumb -5.99729 -57.1814 0
7
root 7.41526 15.8654 -36.4832 7.53521 -0.0299718 -5.53314
lfemur -42.4896 5.61507 -12.5976
ltibia 38.1148 0 0
lfoot -14.0238 9.62501 0
ltoes -13.2744 0 0
rfemur -1.06905 6.21395 32.474
rtibia 11.4128 0 0
rfoot -5.23954 1.17321 0
rtoes -11.1211 0 0
lowerback -5.5608 0.617299 2.47858
upperback -1.24819 0.578201 2.91664
thorax 1.84234 0.298392 1.67692
lowerneck -18.7582 -5.10029 -13.0418
upperneck 14.0288 -6.61621 16.7506
head 8.49948 -2.25995 7.06835
lclavicle 1.15087e-14 1.67548e-14 0
lhumerus -37.8266 -4.56454 87.593
lradius 27.8811 0 0
lwrist 7.44815 0 0
lhand -14.8853 -25.0802 0
lfingers 7.12502 0 0
lthumb 11.2828 4.69491 0
rclavicle 1.15087e-14 1.67548e-14 0
rhumerus -40.0124 19.18 -86.1897
rradius 60.454 0 0
rwrist -30.4218 0 0
rhand -32.6776 -27.5621 0
rfingers 7.12502 0 0
rthumb -5.90289 -57.4579 0
8
root 7.41805 15.8484 -36.3876 7.58522 -0.312758 -5.77827
lfemur -42.672 5.50848 -12.0969
ltibia 37.2021 0 0
lfoot -13.9086 9.80611 0
ltoes -13.4276 0 0
rfemur 0.270802 6.39801 32.7235
rtibia 9.75553 0 0
rfoot -5.94832 1.28086 0
rtoes -12.7666 0 0
lowerback -5.751 0.68206 2.68181
upperback -1.21251 0.63961 2.96885
thorax 1.9869 0.33004 1.62619
lowerneck -18.7986 -5.08255 -12.9881
upperneck 14.1051 -6.60178 16.6993
head 8.52546 -2.25185 7.04486
lclavicle 1.2374e-14 1.67763e-14 0
lhumerus -38.1288 -4.80778 87.8023
lradius 27.9066 0 0
lwrist 7.39562 0 0
lhand -15.0163 -25.3443 0
lfingers 7.12502 0 0
lthumb 11.1572 4.4478 0
rclavicle 1.2374e-14 1.67763e-14 0
rhumerus -40.2206 19.4059 -86.5394
rradius 60.9564 0 0
rwrist -30.6319 0 0
rhand -32.5766 -27.8252 0
rfingers 7.12502 0 0
rthumb -5.80532 -57.7234 0
